<svg xmlns="http://www.w3.org/2000/svg" xmlns:xlink="http://www.w3.org/1999/xlink" width="400" height="100" viewBox="0 0 400 100"><metadata><rdf:RDF xmlns:rdf="http://www.w3.org/1999/02/22-rdf-syntax-ns#" xmlns:dc="http://purl.org/dc/elements/1.1/"><rdf:Description><dc:creator>RealFaviconGenerator</dc:creator><dc:source>https://realfavicongenerator.net</dc:source></rdf:Description></rdf:RDF></metadata><path fill="#3C80F9" d="M116.933 29.9413C130.255 30.1454 145.204 30.2034 158.503 29.9286C158.543 39.8916 158.529 49.8547 158.462 59.8176C158.449 61.5973 158.487 69.7099 158.175 70.8689C157.631 71.4181 157.901 71.2947 157.062 71.3113C149.414 71.3757 141.902 71.2814 134.261 71.2621C128.496 71.2474 122.855 71.4788 117.042 71.356C116.422 67.4867 116.647 61.4971 116.597 57.5248C116.482 48.3837 116.948 39.0665 116.933 29.9413ZM127.315 61.3835C132.786 61.0758 141.723 61.0146 147.236 61.2843C147.169 55.9228 146.716 45.0768 147.156 39.9765C140.537 40.1095 134.09 39.8744 127.4 40.1108L127.509 53.8497C127.516 55.9851 127.601 59.4061 127.315 61.3835Z"></path><path fill="#3C80F9" d="M163.917 29.9798L192.535 30.1019C196.455 30.0988 201.624 30.2391 205.462 29.9696L205.5 63.5988C203.333 63.4034 199.738 63.4919 197.46 63.487L173.742 63.5044C174.016 65.6814 174.008 69.1689 174.059 71.4694C171.009 71.2774 167.042 71.1906 164.021 71.3408C164.144 57.6129 163.718 43.6143 163.917 29.9798ZM173.684 53.7111C179.546 52.854 188.627 53.4503 194.822 53.5593L195.196 53.3656C194.833 50.1163 194.83 43.542 194.803 40.0893C187.819 39.9549 180.834 39.923 173.849 39.9935C173.851 44.2347 174.12 49.6192 173.684 53.7111Z"></path><path fill="#3C80F9" d="M351.368 29.9558C363.936 30.2088 380.06 30.3359 392.605 29.933C392.512 33.3969 392.497 36.8624 392.562 40.3269C383.766 39.587 370.83 39.9744 361.7 40.0099C361.762 42.0653 361.704 43.6193 361.595 45.6534C365.042 45.2967 368.843 45.3663 372.332 45.3352C379.051 45.2225 385.772 45.2852 392.487 45.5232C392.772 48.2967 392.729 52.8279 392.791 55.7201C388.713 55.3519 381.446 55.5409 377.125 55.5357C371.816 55.4829 367.032 55.5949 361.759 55.6583C361.757 57.6523 361.787 59.2134 361.481 61.2034C371.793 61.2636 382.144 60.9981 392.486 61.024C392.885 63.6939 392.698 68.6937 392.663 71.5761C389.633 71.0473 377.447 71.1595 373.506 71.245C367.397 71.3775 357.008 70.8912 351.327 71.4929C351.174 67.9139 351.292 63.9473 351.286 60.3296C351.255 54.7515 351.255 49.1733 351.285 43.5953C351.354 39.0056 351.607 34.5505 351.368 29.9558Z"></path><path fill="#3C80F9" d="M304.507 30.0324C317.535 30.2584 332.842 30.2649 345.875 29.9526L345.559 40.2993C342.026 39.8977 336.874 39.9989 333.239 39.9832C327.151 39.8994 321.063 39.903 314.975 39.9939C314.964 41.7654 314.795 43.7676 314.683 45.5529C318.666 45.1305 323.996 45.2574 328.098 45.2604C333.991 45.2648 340.069 45.1957 345.945 45.3323C345.828 50.7671 345.767 56.2029 345.76 61.639C345.741 63.9775 345.759 69.2888 345.37 71.4118C336.466 70.7821 326.785 71.5223 317.804 71.2467C313.563 71.1165 308.726 71.1774 304.516 71.4019C304.481 68.061 304.507 64.7198 304.594 61.3799C308.083 60.9775 316.365 61.1754 320.192 61.1729C324.089 61.1703 332.473 61.0031 335.948 61.4448C335.557 59.4138 335.564 57.8116 335.647 55.7591C325.213 55.3597 314.745 55.5315 304.302 55.5873C304.031 46.6679 304.411 38.8737 304.507 30.0324Z"></path><path fill="#3C80F9" d="M63.8382 29.8977L64.2692 29.8386C64.3427 29.9201 64.4303 30.0174 64.5322 30.1304C64.6525 40.4121 64.4697 61.9517 64.5413 71.3589C61.1398 71.4954 57.7331 71.4332 54.3388 71.1725C54.019 68.5865 54.089 67.3077 54.2148 64.7446C49.5586 60.0787 38.9638 53.9191 33.4219 49.3879C33.7233 56.4662 33.4485 64.3267 33.5543 71.5149C30.244 71.2608 26.4451 71.2839 23.1327 71.4235C23.0853 71.0675 23.0746 70.7087 23.0563 70.3501C22.3703 56.9202 22.8551 43.4095 23.15 29.9817C26.5402 29.8864 30.0117 30.0875 33.54 29.967C33.4963 31.4193 33.1714 35.9282 34.1347 36.8542C40.181 42.6669 48.6195 46.8619 54.7643 52.456C53.7632 46.4695 53.8429 36.1776 54.0191 30.068C56.6375 29.8165 61.0843 29.9166 63.8382 29.8977Z"></path><path fill="#3C80F9" d="M70.1991 30.0379C73.2185 29.8658 77.1412 30.1727 80.29 30.0777C90.4021 29.7726 101.489 30.4063 111.523 29.9139C111.498 33.3173 111.493 36.7208 111.507 40.1242C101.158 40.2791 90.8494 40.0212 80.4987 39.9989L80.4926 45.7011C83.1203 45.2471 88.1361 45.4127 90.8967 45.397L107.063 45.2574C108.558 45.2794 109.988 45.227 111.482 45.1738C111.453 48.7151 111.497 52.2566 111.615 55.796C109.148 55.5655 105.409 55.6769 102.849 55.683L88.1348 55.7148C85.8964 55.7181 82.6499 55.8235 80.4902 55.5806C80.4679 60.7837 80.503 66.1561 80.3533 71.3436C76.9951 71.3484 73.3528 71.3197 70.0259 71.5329C69.8061 66.7665 69.4092 32.3573 70.1991 30.0379Z"></path><path fill="#3C80F9" d="M211.222 29.996C214.475 30.0292 217.729 30.0089 220.982 29.9352L220.97 61.4845C225.778 60.8605 237.1 61.1013 242.03 61.3036C241.844 51.5124 242.425 39.8391 241.821 30.2676C245.289 30.109 249.189 30.3296 252.51 30.0717C252.564 33.2913 252.473 36.7038 252.439 39.9375C252.113 50.2227 252.478 61.0318 252.347 71.3992C243.996 71.0506 235.359 71.5023 226.979 71.2982C221.677 71.1691 216.292 71.4367 210.997 71.0014C210.481 62.0344 211.042 51.8806 210.894 42.7603C210.859 40.5883 210.943 31.431 211.222 29.996Z"></path><path fill="#3C80F9" d="M257.969 30.1369C260.996 29.9844 264.584 30.0735 267.755 29.9667C267.642 40.3417 267.955 51.0096 267.722 61.2962C278.17 61.1181 288.619 61.02 299.068 61.0019C299.093 64.1979 298.983 68.1726 298.734 71.311C297.478 71.4679 289.458 71.2301 287.562 71.252C277.602 71.3673 267.436 71.0541 257.484 71.3248C257.894 69.3985 257.758 62.3421 257.757 59.8836L257.741 37.2673C257.739 35.8025 257.583 31.1254 257.969 30.1369Z"></path><path fill="#3C80F9" d="M7.4425 30.0134C10.82 29.9261 14.282 30.0278 17.6668 30.0892C18.294 38.7446 17.7397 48.2105 17.7228 56.9413C17.7173 59.7935 18.0162 69.0544 17.4823 71.2784C14.1001 71.3176 10.7181 71.3772 7.33664 71.4572C6.51075 58.8806 7.30768 42.7113 7.4425 30.0134Z"></path></svg>