<?xml version="1.0" encoding="utf-8" ?><svg xmlns="http://www.w3.org/2000/svg" xmlns:xlink="http://www.w3.org/1999/xlink" width="400" height="100" viewBox="0 0 400 100"><path fill="#FEFEFE" d="M117.247 30.0227C130.613 30.0728 145.157 29.6856 158.391 30.0861C158.592 38.3484 158.328 46.962 158.359 55.2687C158.375 59.5356 158.702 67.2565 158.322 71.2036C152.454 71.4655 143.841 70.988 137.772 71.1676C134.895 71.2527 119.191 71.2608 117.423 70.8103C116.505 68.7884 117.185 52.546 117.039 48.8157C116.944 46.3961 116.801 31.3051 117.247 30.0227ZM126.982 61.3985C132.47 60.9277 138.833 61.3247 144.416 61.1008C145.679 61.0502 147.019 61.2815 148.171 61.2198C148.297 60.1482 148.043 58.5234 148.125 57.321C148.456 52.425 147.715 44.6833 148.239 40.1401C144.986 39.8606 140.294 39.9948 136.901 39.9861C134.22 39.9793 129.763 39.8668 127.233 40.0886C127.159 44.2083 127.116 48.3285 127.102 52.4489C127.118 55.0163 127.357 59.0355 126.982 61.3985Z"/><path fill="#FEFEFE" d="M164.525 30.0241L191.501 30.016C195.899 30.0126 200.901 29.9003 205.255 30.0888C205.216 40.8648 204.967 52.6972 205.4 63.3604C202.775 63.5696 198.93 63.4744 196.213 63.4842L173.726 63.4718C174.006 66.1212 174.054 68.49 174.077 71.1471C171.103 71.3402 167.343 71.0662 164.066 71.2001C163.976 62.5268 163.956 53.853 164.005 45.1794C164.006 42.701 163.725 31.1473 164.525 30.0241ZM173.64 53.6061C180.172 53.2577 188.07 53.422 194.701 53.4776C195.518 52.3016 195.019 42.1438 194.999 40.146C192.793 39.9418 190.32 39.9414 188.096 39.9806C183.51 40.0615 178.738 39.8389 174.163 40.0934C173.686 40.9508 174.173 51.0825 173.64 53.6061Z"/><path fill="#FEFEFE" d="M305.06 30.0625C309.225 29.8733 314.699 30.0362 318.945 30.0359L345.843 30.0146C345.884 32.176 346.56 38.4205 345.282 39.8744C343.502 40.163 337.642 40.0119 335.53 40.0091C328.613 39.9739 321.696 39.9818 314.78 40.0327C314.783 42.0854 314.798 43.527 314.521 45.584L334.095 45.5556C337.418 45.5502 342.381 45.6858 345.521 45.2868C346.54 51.2522 345.919 63.7033 345.888 70.2468C345.886 70.7609 345.547 70.943 345.204 71.1651C336.109 71.3736 326.561 70.9634 317.424 71.1191C313.173 71.1916 308.892 70.9551 304.643 71.3032C304.436 69.5409 304.304 63.3605 304.926 61.7504C306.109 60.591 330.109 61.4245 334.188 61.1748C334.695 61.1437 335.061 61.1627 335.644 61.0083C335.864 60.0736 335.733 57.0308 335.95 55.3293C333.327 55.5575 329.278 55.4573 326.588 55.4915C319.292 55.584 311.911 55.3485 304.617 55.5621C304.3 52.7014 304.197 31.6807 305.06 30.0625Z"/><path fill="#FEFEFE" d="M351.792 30.0259L392.643 30.0073C392.399 33.4052 392.854 36.7149 392.468 40.1301C390.044 40.1877 386.972 40.0296 384.436 40.0197C376.865 39.9726 369.293 39.9739 361.721 40.0236C361.68 41.9933 361.648 43.6036 361.416 45.5749L380.022 45.5519C383.622 45.5426 389.149 45.6824 392.507 45.0918C392.541 48.5623 392.616 52.0323 392.731 55.5011C387.494 55.3602 381.658 55.494 376.375 55.5008C371.433 55.4485 366.49 55.4599 361.548 55.5349C361.638 57.3448 361.648 59.2184 361.682 61.0348C362.8 61.5421 389.023 61.0361 392.542 61.0079C392.608 64.4452 392.688 67.8128 392.58 71.2503C383.979 71.1437 375.377 71.1064 366.776 71.1386C362.586 71.1353 355.506 70.9118 351.548 71.3382C351.27 67.4638 351.159 31.9899 351.792 30.0259Z"/><path fill="#FEFEFE" d="M23.6354 30.0067C26.8872 30.0015 30.1989 29.9629 33.4432 30.0863C33.4795 32.3898 33.421 34.7538 33.3915 37.0616C37.351 39.9904 41.8632 42.8324 45.8871 45.8447C47.6352 47.1534 52.7402 50.9345 54.4019 51.8692L54.6407 51.7774C54.1185 47.1562 54.3453 34.8235 54.6954 30.1427C57.0743 29.8897 61.9902 30.0259 64.5602 30.0356C64.4794 32.9552 64.6559 36.225 64.6567 39.1991C64.5926 45.9032 64.5851 52.6077 64.6341 59.3119C64.6467 61.2792 64.8234 69.6858 64.5037 71.2637C62.4547 70.9416 56.644 71.1391 54.5018 71.3007L54.5329 64.6202C49.1311 59.7711 39.0666 54.2899 33.2424 49.1684C33.5803 51.5378 33.4934 56.8633 33.4736 59.4789C33.4474 62.9415 33.6226 67.806 33.3418 71.1584C30.1372 71.172 26.6749 70.9687 23.5466 71.3605C23.1211 68.3989 23.2055 58.1354 23.3032 54.5987C23.4956 47.6312 22.7906 36.4979 23.6354 30.0067Z"/><path fill="#FEFEFE" d="M70.5776 30.0161C84.073 30.1105 98.021 29.7688 111.449 30.0687C111.484 31.9003 111.89 38.698 111.037 39.8623C108.954 40.2012 103.879 39.9893 101.56 40.0204C94.5389 40.1145 87.325 39.8314 80.3093 40.0714C80.4211 42.2145 80.4441 43.4312 80.3136 45.5954C89.7098 45.4139 99.3673 45.5788 108.813 45.4888C109.946 45.4863 109.992 45.3238 110.924 45.8326C112.109 47.5136 111.456 52.707 111.789 55.4646C101.7 55.8479 90.5512 55.4199 80.3176 55.5558C80.5316 58.6598 80.4302 67.8719 80.2632 71.1054C76.858 71.2848 73.9261 70.9377 70.4824 71.3777C69.7569 67.9368 69.7494 33.2098 70.5776 30.0161Z"/><path fill="#FEFEFE" d="M211.361 30.0114L220.848 30.0103C220.805 33.2498 220.647 59.8587 221.058 61.0372C222.949 61.4968 239.358 61.2254 241.608 61.0198C242.874 59.6842 240.918 34.9234 242.309 30.7618C243.316 29.7639 244.404 30.1384 245.679 30.0073C254.578 29.0921 251.947 32.7085 252.043 39.8003L252 59.5207C252.01 63.0441 251.916 67.7095 252.203 71.1642C248.546 71.3829 242.318 71.1856 238.52 71.1815L210.885 71.1119C210.588 66.5944 210.598 31.5374 211.361 30.0114Z"/><path fill="#FEFEFE" d="M258.384 30.0307L267.676 30.0177L267.711 49.3899C267.723 51.9878 267.908 59.3054 267.481 61.3069C273.252 60.9899 279.971 61.3117 285.848 61.1704C288.038 61.1178 296.606 60.9443 298.342 61.1965C298.419 61.3066 298.488 61.4217 298.55 61.541C299.265 62.9255 299.298 69.6751 298.807 71.216L274.087 71.1608C268.724 71.1548 263.121 71.0193 257.79 71.2081C257.671 62.6894 257.637 54.1696 257.686 45.6501C257.682 43.2538 257.333 31.2362 258.384 30.0307Z"/><path fill="#FEFEFE" d="M8.33984 30.057C11.4942 30.0128 14.649 30.0098 17.8034 30.048L17.9617 56.1524C17.9673 58.1749 18.3216 70.0652 17.4189 71.1437C14.4736 71.2665 10.7858 71.0895 7.69719 71.122C7.54117 66.0391 6.92531 31.7875 8.33984 30.057Z"/></svg>