<?xml version="1.0" encoding="utf-8"?><svg version="1.1" id="svg" xmlns="http://www.w3.org/2000/svg" xmlns:xlink="http://www.w3.org/1999/xlink" x="0px" y="0px" width="1200px" height="630px" viewBox="0 0 1200 630" style="enable-background:new 0 0 1200 630;" xml:space="preserve"> <title>Outlook.com logo White - free.arinco.org</title><style><![CDATA[.st0{fill:#FFF;}.st1{fill:#0072C6;}]]></style><a xlink:href="http://free.arinco.org/mail/outlook/index3.html"><rect class="st1" width="1200" height="630"/><path class="st0" d="M259.599,275.91c1.678,0,4.65,2.284,4.65,5.47l-39.935,26.923c-0.244,0.077-0.775,0.071-1.019,0l-9.279-5.842 V275.91H259.599z M214.012,312.369v36.084h43.019c3.823,0,7.224-2.228,7.224-7.54v-48.8c0,0-40.571,26.948-39.139,26.072 c0,0-1.437,0.876-2.63,0l-8.468-5.817H214.012z M390.382,352.477c8.642-9.479,12.964-22.373,12.964-38.683 c0-15.003-4.216-27.158-12.648-36.451c-8.432-9.289-19.55-13.938-33.352-13.938c-14.963,0-26.791,4.787-35.477,14.356 c-8.693,9.574-13.036,22.401-13.036,38.477c0,14.962,4.262,27.11,12.791,36.45c8.529,9.341,19.878,14.011,34.05,14.011 C370.167,366.699,381.741,361.952,390.382,352.477z M381.874,284.813c6.132,7.204,9.201,17.404,9.201,30.599 c0,12.873-3.161,22.891-9.477,30.038c-6.323,7.159-14.963,10.731-25.929,10.731c-10.268,0-18.598-3.746-24.986-11.25 c-6.393-7.512-9.585-17.416-9.585-29.734c0-12.312,3.278-22.259,9.829-29.834C337.484,277.786,346.008,274,356.51,274 C367.287,274,375.745,277.598,381.874,284.813z M475.617,365.026v-71.374h-11.429v41.122c0,6.655-1.804,12.026-5.403,16.141 c-3.6,4.115-8.188,6.163-13.766,6.163c-11.527,0-17.288-7.53-17.288-22.583v-40.842h-11.363v42.656 c0,20.266,8.504,30.391,25.51,30.391c9.942,0,17.283-4.323,22.024-12.965h0.281v11.292h11.429H475.617z M528.225,364.327v-9.757 c-2.09,1.586-4.576,2.37-7.458,2.37c-3.763,0-6.459-1.018-8.086-3.069c-1.632-2.042-2.442-5.46-2.442-10.247V303.41h17.982v-9.757 h-17.982v-21.122l-11.429,3.696v17.426h-12.267v9.757h12.267v42.239c0,13.942,6.25,20.91,18.75,20.91 c4.416,0,7.969-0.737,10.667-2.232H528.225z M874.868,361.747v-10.868c-5.486,4.146-11.338,6.206-17.562,6.206 c-7.389,0-13.288-2.413-17.678-7.25c-4.39-4.828-6.581-11.432-6.581-19.797c0-8.504,2.329-15.372,7-20.598 c4.67-5.227,10.65-7.841,17.95-7.841c6.035,0,11.711,1.863,17.009,5.578v-11.711c-4.793-2.324-10.318-3.487-16.59-3.487 c-11.252,0-20.246,3.57-26.974,10.703c-6.739,7.132-10.104,16.579-10.104,28.331c0,10.558,3.119,19.138,9.37,25.761 c6.256,6.623,14.468,9.926,24.645,9.926C862.878,366.699,869.382,365.046,874.868,361.747L874.868,361.747z M918.411,366.699 c10.828,0,19.454-3.428,25.899-10.274c6.434-6.857,9.651-15.971,9.651-27.36c0-11.613-2.989-20.699-8.955-27.251 c-5.974-6.55-14.279-9.829-24.925-9.829c-11.153,0-20.004,3.369-26.555,10.104c-6.552,6.737-9.828,16.101-9.828,28.088 c0,11.012,3.149,19.851,9.45,26.525C899.44,363.37,907.869,366.699,918.411,366.699L918.411,366.699z M919.247,301.599 c7.39,0,13.072,2.418,17.043,7.256c3.971,4.833,5.955,11.705,5.955,20.628c0,8.833-1.984,15.64-5.955,20.423 c-3.975,4.785-9.66,7.179-17.048,7.179c-7.249,0-13.034-2.445-17.354-7.321c-4.319-4.879-6.48-11.543-6.48-20.006 c0-8.779,2.143-15.666,6.415-20.664C906.101,304.098,911.91,301.599,919.247,301.599L919.247,301.599z M1070,365.026v-43.971 c0-19.378-7.858-29.064-23.558-29.064c-10.503,0-18.401,4.923-23.697,14.773c-1.351-4.416-3.834-7.983-7.46-10.701 c-3.625-2.717-7.876-4.078-12.755-4.078c-9.718,0-17.104,4.325-22.167,12.963h-0.28v-11.292h-11.429v71.374h11.429v-40.702 c0-6.74,1.621-12.212,4.881-16.416c3.251-4.201,7.39-6.307,12.407-6.307c10.823,0,16.243,7.021,16.243,21.051v42.374h11.43v-40.702 c0-6.231,1.712-11.573,5.124-16.034c3.41-4.46,7.56-6.695,12.438-6.695c5.761,0,9.86,1.77,12.303,5.299 c2.441,3.533,3.66,9.246,3.66,17.144v40.984H1070L1070,365.026z M170.173,300.126c-2.886,0-5.185,1.356-6.883,4.062 c-1.697,2.71-2.548,6.294-2.548,10.754c0,4.528,0.851,8.105,2.548,10.736c1.698,2.637,3.927,3.946,6.68,3.946 c2.839,0,5.092-1.28,6.754-3.838c1.662-2.56,2.498-6.114,2.498-10.658c0-4.736-0.805-8.422-2.422-11.058 C175.184,301.441,172.978,300.126,170.173,300.126z M209.021,247.131v135.738L130,366.302V262.426L209.021,247.131z M187.884,314.555c0-6.991-1.61-12.617-4.832-16.889c-3.217-4.273-7.439-6.404-12.654-6.404c-5.522,0-9.958,2.231-13.307,6.694 c-3.349,4.46-5.021,10.303-5.021,17.526c0,6.842,1.652,12.39,4.946,16.652c3.298,4.258,7.56,6.389,12.796,6.389 c5.373,0,9.727-2.204,13.067-6.598C186.217,327.529,187.889,321.738,187.884,314.555z M554.7,365.026v-105.67h-11.43v105.67H554.7 L554.7,365.026z M629.994,356.421c6.434-6.857,9.651-15.971,9.651-27.356c0-11.62-2.987-20.705-8.953-27.255 c-5.974-6.552-14.28-9.831-24.924-9.831c-11.15,0-20,3.371-26.551,10.106c-6.552,6.741-9.828,16.1-9.828,28.091 c0,11.012,3.149,19.851,9.446,26.52c6.295,6.667,14.718,10.003,25.265,10.003C614.93,366.699,623.555,363.271,629.994,356.421z M604.938,301.595c7.387,0,13.07,2.417,17.048,7.255c3.972,4.832,5.955,11.711,5.955,20.634c0,8.833-1.983,15.64-5.955,20.423 c-3.978,4.785-9.661,7.179-17.048,7.179c-7.25,0-13.036-2.445-17.355-7.321c-4.317-4.879-6.479-11.549-6.479-20.006 c0-8.783,2.135-15.672,6.413-20.668C591.789,304.092,597.595,301.595,604.938,301.595L604.938,301.595z M710.069,356.421 c6.439-6.857,9.657-15.971,9.657-27.356c0-11.62-2.987-20.705-8.956-27.255c-5.971-6.552-14.28-9.831-24.922-9.831 c-11.154,0-20.004,3.371-26.556,10.106c-6.552,6.741-9.828,16.1-9.828,28.091c0,11.012,3.15,19.851,9.448,26.52 c6.293,6.667,14.716,10.003,25.266,10.003C695.001,366.699,703.63,363.278,710.069,356.421z M702.051,308.85 c3.973,4.832,5.958,11.711,5.958,20.634c0,8.833-1.985,15.64-5.958,20.423c-3.976,4.785-9.655,7.179-17.041,7.179 c-7.252,0-13.038-2.445-17.355-7.321c-4.318-4.879-6.48-11.549-6.48-20.006c0-8.783,2.139-15.672,6.416-20.668 c4.271-4.998,10.082-7.495,17.424-7.495C692.401,301.595,698.081,304.011,702.051,308.85z M757.968,328.085l33.107-34.432h-14.984 l-29.972,32.69h-0.279v-66.986h-11.431v105.67h11.431v-34.297h0.279l31.508,34.297h16.033L757.968,328.085z M817.067,364.256 c1.532-1.534,2.296-3.362,2.296-5.506c0-2.135-0.764-3.98-2.296-5.542c-1.536-1.56-3.391-2.333-5.579-2.333 c-2.137,0-3.962,0.773-5.465,2.333c-1.516,1.562-2.269,3.407-2.269,5.542c0,2.144,0.753,3.972,2.269,5.506 c1.505,1.535,3.328,2.3,5.465,2.3C813.677,366.556,815.531,365.791,817.067,364.256z"/> </a></svg>